<svg width="256" height="256" xmlns="http://www.w3.org/2000/svg">
 <g>
   <g stroke="null">
   <g stroke="null" fill="#000" transform="translate(0 1280) scale(0.1 -0.1)">
    <path stroke="null" d="m341.25462,12289.14633c-56.3862,-21.45426 -110.15938,-42.08336 -119.64876,-45.65907c-9.48938,-3.57571 -55.97362,-21.45426 -103.55806,-39.47034l-86.22962,-32.86903l0,-13.47768l0,-13.6152l308.74881,-473.50653c169.84623,-260.47673 308.74881,-473.91911 308.74881,-474.33169c0,-0.68764 -25.58008,-53.22307 -151.28004,-310.39914c-108.37152,-221.83155 -123.77458,-253.46283 -123.49952,-253.73789c0.27505,-0.13753 105.89603,-14.57789 234.89665,-32.18139c163.93255,-22.27942 237.37214,-31.76881 243.97345,-31.49375l9.48938,0.41258l37.40743,85.26693c35.34452,80.45348 59.54933,135.87698 179.47314,409.14375c27.36793,62.4374 72.88947,166.13299 101.08257,230.35824c28.1931,64.36278 72.33937,164.89524 98.05697,223.48188c96.54417,220.0437 142.34077,324.70198 195.15125,444.90085c29.84343,68.07602 64.22525,146.19153 76.19013,173.69699l22.00437,50.05994l-0.41258,13.20262l-0.41258,13.34015l-204.22806,58.03652c-192.12565,54.73587 -204.91569,58.17405 -215.23024,58.17405l-11.00218,0l-4.95098,-12.1024c-2.75055,-6.60131 -25.44255,-59.96191 -50.47252,-118.54854c-60.51202,-142.20324 -129.68825,-304.62299 -174.65968,-410.10644c-20.21651,-47.58445 -36.99485,-86.36715 -37.40743,-86.36715c-0.41258,0.13753 -92.55588,141.24055 -204.91569,313.56227l-204.22806,313.56227l-10.31455,-0.13753c-10.17702,0 -12.23993,-0.68764 -112.77239,-39.19528z"/>
   </g>
  </g>
  <ellipse stroke="#fff" ry="30" rx="30" id="svg_1" cy="48" cx="210" fill="#e25a1c"/>
  <rect stroke="#fff" id="svg_3" height="116" width="50" y="100" x="185" fill="#000"/>
 </g>
</svg>